<svg id="visual" viewBox="0 0 700 50" width="700" height="50" xmlns="http://www.w3.org/2000/svg" xmlns:xlink="http://www.w3.org/1999/xlink" version="1.1"><rect x="0" y="0" width="700" height="50" fill="#001122"></rect><path d="M0 45L8.3 42.5C16.7 40 33.3 35 50 33.3C66.7 31.7 83.3 33.3 100 32C116.7 30.7 133.3 26.3 150 26.7C166.7 27 183.3 32 200 32C216.7 32 233.3 27 250 25.8C266.7 24.7 283.3 27.3 300 31C316.7 34.7 333.3 39.3 350 40.3C366.7 41.3 383.3 38.7 400 35.8C416.7 33 433.3 30 450 30.5C466.7 31 483.3 35 500 34.5C516.7 34 533.3 29 550 28.3C566.7 27.7 583.3 31.3 600 31.7C616.7 32 633.3 29 650 30C666.7 31 683.3 36 691.7 38.5L700 41L700 0L691.7 0C683.3 0 666.7 0 650 0C633.3 0 616.7 0 600 0C583.3 0 566.7 0 550 0C533.3 0 516.7 0 500 0C483.3 0 466.7 0 450 0C433.3 0 416.7 0 400 0C383.3 0 366.7 0 350 0C333.3 0 316.7 0 300 0C283.3 0 266.7 0 250 0C233.3 0 216.7 0 200 0C183.3 0 166.7 0 150 0C133.3 0 116.7 0 100 0C83.3 0 66.7 0 50 0C33.3 0 16.7 0 8.3 0L0 0Z" fill="#715df2"></path><path d="M0 34L8.3 33.2C16.7 32.3 33.3 30.7 50 27.8C66.7 25 83.3 21 100 22.3C116.7 23.7 133.3 30.3 150 32C166.7 33.7 183.3 30.3 200 26.7C216.7 23 233.3 19 250 20C266.7 21 283.3 27 300 27.5C316.7 28 333.3 23 350 21.5C366.7 20 383.3 22 400 22.2C416.7 22.3 433.3 20.7 450 20.5C466.7 20.3 483.3 21.7 500 20.8C516.7 20 533.3 17 550 17C566.7 17 583.3 20 600 22.7C616.7 25.3 633.3 27.7 650 27.3C666.7 27 683.3 24 691.7 22.5L700 21L700 0L691.7 0C683.3 0 666.7 0 650 0C633.3 0 616.7 0 600 0C583.3 0 566.7 0 550 0C533.3 0 516.7 0 500 0C483.3 0 466.7 0 450 0C433.3 0 416.7 0 400 0C383.3 0 366.7 0 350 0C333.3 0 316.7 0 300 0C283.3 0 266.7 0 250 0C233.3 0 216.7 0 200 0C183.3 0 166.7 0 150 0C133.3 0 116.7 0 100 0C83.3 0 66.7 0 50 0C33.3 0 16.7 0 8.3 0L0 0Z" fill="#9d84f6"></path><path d="M0 14L8.3 14C16.7 14 33.3 14 50 16.3C66.7 18.7 83.3 23.3 100 22.7C116.7 22 133.3 16 150 15.5C166.7 15 183.3 20 200 22.7C216.7 25.3 233.3 25.7 250 25.7C266.7 25.7 283.3 25.3 300 23.2C316.7 21 333.3 17 350 15.7C366.7 14.3 383.3 15.7 400 18.3C416.7 21 433.3 25 450 24.5C466.7 24 483.3 19 500 16.7C516.7 14.3 533.3 14.7 550 14.2C566.7 13.7 583.3 12.3 600 13C616.7 13.7 633.3 16.3 650 17.5C666.7 18.7 683.3 18.3 691.7 18.2L700 18L700 0L691.7 0C683.3 0 666.7 0 650 0C633.3 0 616.7 0 600 0C583.3 0 566.7 0 550 0C533.3 0 516.7 0 500 0C483.3 0 466.7 0 450 0C433.3 0 416.7 0 400 0C383.3 0 366.7 0 350 0C333.3 0 316.7 0 300 0C283.3 0 266.7 0 250 0C233.3 0 216.7 0 200 0C183.3 0 166.7 0 150 0C133.3 0 116.7 0 100 0C83.3 0 66.7 0 50 0C33.3 0 16.7 0 8.3 0L0 0Z" fill="#c1acfa"></path><path d="M0 19L8.3 18.5C16.7 18 33.3 17 50 16C66.7 15 83.3 14 100 14.5C116.7 15 133.3 17 150 16.5C166.7 16 183.3 13 200 11.7C216.7 10.3 233.3 10.7 250 10.8C266.7 11 283.3 11 300 12.5C316.7 14 333.3 17 350 17.3C366.7 17.7 383.3 15.3 400 14C416.7 12.7 433.3 12.3 450 13.3C466.7 14.3 483.3 16.7 500 17.5C516.7 18.3 533.3 17.7 550 18C566.7 18.3 583.3 19.7 600 18C616.7 16.3 633.3 11.7 650 11.7C666.7 11.7 683.3 16.3 691.7 18.7L700 21L700 0L691.7 0C683.3 0 666.7 0 650 0C633.3 0 616.7 0 600 0C583.3 0 566.7 0 550 0C533.3 0 516.7 0 500 0C483.3 0 466.7 0 450 0C433.3 0 416.7 0 400 0C383.3 0 366.7 0 350 0C333.3 0 316.7 0 300 0C283.3 0 266.7 0 250 0C233.3 0 216.7 0 200 0C183.3 0 166.7 0 150 0C133.3 0 116.7 0 100 0C83.3 0 66.7 0 50 0C33.3 0 16.7 0 8.3 0L0 0Z" fill="#e1d5fd"></path><path d="M0 11L8.3 9.8C16.7 8.7 33.3 6.3 50 6C66.7 5.7 83.3 7.3 100 7.7C116.7 8 133.3 7 150 7.2C166.7 7.3 183.3 8.7 200 8.3C216.7 8 233.3 6 250 4.7C266.7 3.3 283.3 2.7 300 2.3C316.7 2 333.3 2 350 3.7C366.7 5.3 383.3 8.7 400 9.7C416.7 10.7 433.3 9.3 450 9.7C466.7 10 483.3 12 500 12.5C516.7 13 533.3 12 550 11.5C566.7 11 583.3 11 600 9.8C616.7 8.7 633.3 6.3 650 6C666.7 5.7 683.3 7.3 691.7 8.2L700 9L700 0L691.7 0C683.3 0 666.7 0 650 0C633.3 0 616.7 0 600 0C583.3 0 566.7 0 550 0C533.3 0 516.7 0 500 0C483.3 0 466.7 0 450 0C433.3 0 416.7 0 400 0C383.3 0 366.7 0 350 0C333.3 0 316.7 0 300 0C283.3 0 266.7 0 250 0C233.3 0 216.7 0 200 0C183.3 0 166.7 0 150 0C133.3 0 116.7 0 100 0C83.3 0 66.7 0 50 0C33.3 0 16.7 0 8.3 0L0 0Z" fill="#ffffff"></path></svg>