<svg id="visual" viewBox="0 0 900 100" width="900" height="100" xmlns="http://www.w3.org/2000/svg" xmlns:xlink="http://www.w3.org/1999/xlink" version="1.1"><rect x="0" y="0" width="900" height="100" fill="#001220"></rect><path d="M0 46L10.7 45.7C21.3 45.3 42.7 44.7 64.2 46.2C85.7 47.7 107.3 51.3 128.8 52.7C150.3 54 171.7 53 193 55.3C214.3 57.7 235.7 63.3 257 62.8C278.3 62.3 299.7 55.7 321.2 54.7C342.7 53.7 364.3 58.3 385.8 62.8C407.3 67.3 428.7 71.7 450 75C471.3 78.3 492.7 80.7 514.2 83.3C535.7 86 557.3 89 578.8 89C600.3 89 621.7 86 643 82.7C664.3 79.3 685.7 75.7 707 72.8C728.3 70 749.7 68 771.2 62.8C792.7 57.7 814.3 49.3 835.8 51.8C857.3 54.3 878.7 67.7 889.3 74.3L900 81L900 0L889.3 0C878.7 0 857.3 0 835.8 0C814.3 0 792.7 0 771.2 0C749.7 0 728.3 0 707 0C685.7 0 664.3 0 643 0C621.7 0 600.3 0 578.8 0C557.3 0 535.7 0 514.2 0C492.7 0 471.3 0 450 0C428.7 0 407.3 0 385.8 0C364.3 0 342.7 0 321.2 0C299.7 0 278.3 0 257 0C235.7 0 214.3 0 193 0C171.7 0 150.3 0 128.8 0C107.3 0 85.7 0 64.2 0C42.7 0 21.3 0 10.7 0L0 0Z" fill="#f7caca"></path><path d="M0 58L10.7 58.7C21.3 59.3 42.7 60.7 64.2 56.8C85.7 53 107.3 44 128.8 41C150.3 38 171.7 41 193 42.3C214.3 43.7 235.7 43.3 257 48.3C278.3 53.3 299.7 63.7 321.2 64.7C342.7 65.7 364.3 57.3 385.8 56C407.3 54.7 428.7 60.3 450 63.8C471.3 67.3 492.7 68.7 514.2 64C535.7 59.3 557.3 48.7 578.8 44.2C600.3 39.7 621.7 41.3 643 44C664.3 46.7 685.7 50.3 707 50.2C728.3 50 749.7 46 771.2 46.8C792.7 47.7 814.3 53.3 835.8 58.7C857.3 64 878.7 69 889.3 71.5L900 74L900 0L889.3 0C878.7 0 857.3 0 835.8 0C814.3 0 792.7 0 771.2 0C749.7 0 728.3 0 707 0C685.7 0 664.3 0 643 0C621.7 0 600.3 0 578.8 0C557.3 0 535.7 0 514.2 0C492.7 0 471.3 0 450 0C428.7 0 407.3 0 385.8 0C364.3 0 342.7 0 321.2 0C299.7 0 278.3 0 257 0C235.7 0 214.3 0 193 0C171.7 0 150.3 0 128.8 0C107.3 0 85.7 0 64.2 0C42.7 0 21.3 0 10.7 0L0 0Z" fill="#e3b69c"></path><path d="M0 38L10.7 40.7C21.3 43.3 42.7 48.7 64.2 48C85.7 47.3 107.3 40.7 128.8 35.5C150.3 30.3 171.7 26.7 193 27.8C214.3 29 235.7 35 257 35.5C278.3 36 299.7 31 321.2 33.3C342.7 35.7 364.3 45.3 385.8 46.8C407.3 48.3 428.7 41.7 450 42.2C471.3 42.7 492.7 50.3 514.2 48.2C535.7 46 557.3 34 578.8 31.8C600.3 29.7 621.7 37.3 643 41.5C664.3 45.7 685.7 46.3 707 46.2C728.3 46 749.7 45 771.2 45.7C792.7 46.3 814.3 48.7 835.8 45C857.3 41.3 878.7 31.7 889.3 26.8L900 22L900 0L889.3 0C878.7 0 857.3 0 835.8 0C814.3 0 792.7 0 771.2 0C749.7 0 728.3 0 707 0C685.7 0 664.3 0 643 0C621.7 0 600.3 0 578.8 0C557.3 0 535.7 0 514.2 0C492.7 0 471.3 0 450 0C428.7 0 407.3 0 385.8 0C364.3 0 342.7 0 321.2 0C299.7 0 278.3 0 257 0C235.7 0 214.3 0 193 0C171.7 0 150.3 0 128.8 0C107.3 0 85.7 0 64.2 0C42.7 0 21.3 0 10.7 0L0 0Z" fill="#b9aa75"></path><path d="M0 36L10.7 36C21.3 36 42.7 36 64.2 32.3C85.7 28.7 107.3 21.3 128.8 19.2C150.3 17 171.7 20 193 20.2C214.3 20.3 235.7 17.7 257 17.7C278.3 17.7 299.7 20.3 321.2 22.5C342.7 24.7 364.3 26.3 385.8 27.2C407.3 28 428.7 28 450 27.5C471.3 27 492.7 26 514.2 27.5C535.7 29 557.3 33 578.8 34.7C600.3 36.3 621.7 35.7 643 35C664.3 34.3 685.7 33.7 707 33.8C728.3 34 749.7 35 771.2 32.2C792.7 29.3 814.3 22.7 835.8 18.8C857.3 15 878.7 14 889.3 13.5L900 13L900 0L889.3 0C878.7 0 857.3 0 835.8 0C814.3 0 792.7 0 771.2 0C749.7 0 728.3 0 707 0C685.7 0 664.3 0 643 0C621.7 0 600.3 0 578.8 0C557.3 0 535.7 0 514.2 0C492.7 0 471.3 0 450 0C428.7 0 407.3 0 385.8 0C364.3 0 342.7 0 321.2 0C299.7 0 278.3 0 257 0C235.7 0 214.3 0 193 0C171.7 0 150.3 0 128.8 0C107.3 0 85.7 0 64.2 0C42.7 0 21.3 0 10.7 0L0 0Z" fill="#7ba165"></path><path d="M0 5L10.7 8.2C21.3 11.3 42.7 17.7 64.2 19.5C85.7 21.3 107.3 18.7 128.8 18.5C150.3 18.3 171.7 20.7 193 18.5C214.3 16.3 235.7 9.7 257 8.7C278.3 7.7 299.7 12.3 321.2 15.7C342.7 19 364.3 21 385.8 18.7C407.3 16.3 428.7 9.7 450 8.3C471.3 7 492.7 11 514.2 12.3C535.7 13.7 557.3 12.3 578.8 14.5C600.3 16.7 621.7 22.3 643 23.7C664.3 25 685.7 22 707 22.2C728.3 22.3 749.7 25.7 771.2 26C792.7 26.3 814.3 23.7 835.8 20.7C857.3 17.7 878.7 14.3 889.3 12.7L900 11L900 0L889.3 0C878.7 0 857.3 0 835.8 0C814.3 0 792.7 0 771.2 0C749.7 0 728.3 0 707 0C685.7 0 664.3 0 643 0C621.7 0 600.3 0 578.8 0C557.3 0 535.7 0 514.2 0C492.7 0 471.3 0 450 0C428.7 0 407.3 0 385.8 0C364.3 0 342.7 0 321.2 0C299.7 0 278.3 0 257 0C235.7 0 214.3 0 193 0C171.7 0 150.3 0 128.8 0C107.3 0 85.7 0 64.2 0C42.7 0 21.3 0 10.7 0L0 0Z" fill="#009473"></path></svg>