<svg id="visual" viewBox="0 0 900 450" width="900" height="450" xmlns="http://www.w3.org/2000/svg" xmlns:xlink="http://www.w3.org/1999/xlink" version="1.1"><rect x="0" y="0" width="900" height="450" fill="#001220"></rect><path d="M0 170L18.8 172.3C37.7 174.7 75.3 179.3 112.8 176.3C150.3 173.3 187.7 162.7 225.2 155.2C262.7 147.7 300.3 143.3 337.8 142.3C375.3 141.3 412.7 143.7 450.2 144.7C487.7 145.7 525.3 145.3 562.8 148.3C600.3 151.3 637.7 157.7 675.2 167.2C712.7 176.7 750.3 189.3 787.8 189.8C825.3 190.3 862.7 178.7 881.3 172.8L900 167L900 0L881.3 0C862.7 0 825.3 0 787.8 0C750.3 0 712.7 0 675.2 0C637.7 0 600.3 0 562.8 0C525.3 0 487.7 0 450.2 0C412.7 0 375.3 0 337.8 0C300.3 0 262.7 0 225.2 0C187.7 0 150.3 0 112.8 0C75.3 0 37.7 0 18.8 0L0 0Z" fill="#fa7268"></path><path d="M0 183L18.8 172C37.7 161 75.3 139 112.8 128.2C150.3 117.3 187.7 117.7 225.2 128.3C262.7 139 300.3 160 337.8 170.2C375.3 180.3 412.7 179.7 450.2 168.3C487.7 157 525.3 135 562.8 126.5C600.3 118 637.7 123 675.2 133.8C712.7 144.7 750.3 161.3 787.8 159C825.3 156.7 862.7 135.3 881.3 124.7L900 114L900 0L881.3 0C862.7 0 825.3 0 787.8 0C750.3 0 712.7 0 675.2 0C637.7 0 600.3 0 562.8 0C525.3 0 487.7 0 450.2 0C412.7 0 375.3 0 337.8 0C300.3 0 262.7 0 225.2 0C187.7 0 150.3 0 112.8 0C75.3 0 37.7 0 18.8 0L0 0Z" fill="#ef5f67"></path><path d="M0 116L18.8 112.7C37.7 109.3 75.3 102.7 112.8 101.7C150.3 100.7 187.7 105.3 225.2 103.7C262.7 102 300.3 94 337.8 98.5C375.3 103 412.7 120 450.2 129.5C487.7 139 525.3 141 562.8 137.5C600.3 134 637.7 125 675.2 122.7C712.7 120.3 750.3 124.7 787.8 125.5C825.3 126.3 862.7 123.7 881.3 122.3L900 121L900 0L881.3 0C862.7 0 825.3 0 787.8 0C750.3 0 712.7 0 675.2 0C637.7 0 600.3 0 562.8 0C525.3 0 487.7 0 450.2 0C412.7 0 375.3 0 337.8 0C300.3 0 262.7 0 225.2 0C187.7 0 150.3 0 112.8 0C75.3 0 37.7 0 18.8 0L0 0Z" fill="#e34c67"></path><path d="M0 80L18.8 79.8C37.7 79.7 75.3 79.3 112.8 78C150.3 76.7 187.7 74.3 225.2 75.3C262.7 76.3 300.3 80.7 337.8 84.5C375.3 88.3 412.7 91.7 450.2 86.7C487.7 81.7 525.3 68.3 562.8 69.8C600.3 71.3 637.7 87.7 675.2 95.7C712.7 103.7 750.3 103.3 787.8 94.8C825.3 86.3 862.7 69.7 881.3 61.3L900 53L900 0L881.3 0C862.7 0 825.3 0 787.8 0C750.3 0 712.7 0 675.2 0C637.7 0 600.3 0 562.8 0C525.3 0 487.7 0 450.2 0C412.7 0 375.3 0 337.8 0C300.3 0 262.7 0 225.2 0C187.7 0 150.3 0 112.8 0C75.3 0 37.7 0 18.8 0L0 0Z" fill="#d53867"></path><path d="M0 66L18.8 64C37.7 62 75.3 58 112.8 51.3C150.3 44.7 187.7 35.3 225.2 34.2C262.7 33 300.3 40 337.8 39.7C375.3 39.3 412.7 31.7 450.2 33.7C487.7 35.7 525.3 47.3 562.8 50.8C600.3 54.3 637.7 49.7 675.2 44.3C712.7 39 750.3 33 787.8 30.7C825.3 28.3 862.7 29.7 881.3 30.3L900 31L900 0L881.3 0C862.7 0 825.3 0 787.8 0C750.3 0 712.7 0 675.2 0C637.7 0 600.3 0 562.8 0C525.3 0 487.7 0 450.2 0C412.7 0 375.3 0 337.8 0C300.3 0 262.7 0 225.2 0C187.7 0 150.3 0 112.8 0C75.3 0 37.7 0 18.8 0L0 0Z" fill="#c62368"></path></svg>