<svg id="visual" viewBox="0 0 900 200" width="900" height="200" xmlns="http://www.w3.org/2000/svg" xmlns:xlink="http://www.w3.org/1999/xlink" version="1.1"><rect x="0" y="0" width="900" height="200" fill="#001220"></rect><path d="M0 101L18.8 102.3C37.7 103.7 75.3 106.3 112.8 104.3C150.3 102.3 187.7 95.7 225.2 91.2C262.7 86.7 300.3 84.3 337.8 83.8C375.3 83.3 412.7 84.7 450.2 85.2C487.7 85.7 525.3 85.3 562.8 87.2C600.3 89 637.7 93 675.2 98.7C712.7 104.3 750.3 111.7 787.8 112C825.3 112.3 862.7 105.7 881.3 102.3L900 99L900 0L881.3 0C862.7 0 825.3 0 787.8 0C750.3 0 712.7 0 675.2 0C637.7 0 600.3 0 562.8 0C525.3 0 487.7 0 450.2 0C412.7 0 375.3 0 337.8 0C300.3 0 262.7 0 225.2 0C187.7 0 150.3 0 112.8 0C75.3 0 37.7 0 18.8 0L0 0Z" fill="#fa7268"></path><path d="M0 108L18.8 101.5C37.7 95 75.3 82 112.8 75.7C150.3 69.3 187.7 69.7 225.2 76C262.7 82.3 300.3 94.7 337.8 100.7C375.3 106.7 412.7 106.3 450.2 99.5C487.7 92.7 525.3 79.3 562.8 74.3C600.3 69.3 637.7 72.7 675.2 79.2C712.7 85.7 750.3 95.3 787.8 93.8C825.3 92.3 862.7 79.7 881.3 73.3L900 67L900 0L881.3 0C862.7 0 825.3 0 787.8 0C750.3 0 712.7 0 675.2 0C637.7 0 600.3 0 562.8 0C525.3 0 487.7 0 450.2 0C412.7 0 375.3 0 337.8 0C300.3 0 262.7 0 225.2 0C187.7 0 150.3 0 112.8 0C75.3 0 37.7 0 18.8 0L0 0Z" fill="#ef5f67"></path><path d="M0 69L18.8 67C37.7 65 75.3 61 112.8 60.3C150.3 59.7 187.7 62.3 225.2 61.3C262.7 60.3 300.3 55.7 337.8 58.3C375.3 61 412.7 71 450.2 76.5C487.7 82 525.3 83 562.8 80.8C600.3 78.7 637.7 73.3 675.2 72C712.7 70.7 750.3 73.3 787.8 73.8C825.3 74.3 862.7 72.7 881.3 71.8L900 71L900 0L881.3 0C862.7 0 825.3 0 787.8 0C750.3 0 712.7 0 675.2 0C637.7 0 600.3 0 562.8 0C525.3 0 487.7 0 450.2 0C412.7 0 375.3 0 337.8 0C300.3 0 262.7 0 225.2 0C187.7 0 150.3 0 112.8 0C75.3 0 37.7 0 18.8 0L0 0Z" fill="#e34c67"></path><path d="M0 47L18.8 46.8C37.7 46.7 75.3 46.3 112.8 45.5C150.3 44.7 187.7 43.3 225.2 44C262.7 44.7 300.3 47.3 337.8 49.7C375.3 52 412.7 54 450.2 51C487.7 48 525.3 40 562.8 40.8C600.3 41.7 637.7 51.3 675.2 56.2C712.7 61 750.3 61 787.8 56C825.3 51 862.7 41 881.3 36L900 31L900 0L881.3 0C862.7 0 825.3 0 787.8 0C750.3 0 712.7 0 675.2 0C637.7 0 600.3 0 562.8 0C525.3 0 487.7 0 450.2 0C412.7 0 375.3 0 337.8 0C300.3 0 262.7 0 225.2 0C187.7 0 150.3 0 112.8 0C75.3 0 37.7 0 18.8 0L0 0Z" fill="#d53867"></path><path d="M0 39L18.8 37.8C37.7 36.7 75.3 34.3 112.8 30.3C150.3 26.3 187.7 20.7 225.2 20C262.7 19.3 300.3 23.7 337.8 23.5C375.3 23.3 412.7 18.7 450.2 19.7C487.7 20.7 525.3 27.3 562.8 29.3C600.3 31.3 637.7 28.7 675.2 25.7C712.7 22.7 750.3 19.3 787.8 18C825.3 16.7 862.7 17.3 881.3 17.7L900 18L900 0L881.3 0C862.7 0 825.3 0 787.8 0C750.3 0 712.7 0 675.2 0C637.7 0 600.3 0 562.8 0C525.3 0 487.7 0 450.2 0C412.7 0 375.3 0 337.8 0C300.3 0 262.7 0 225.2 0C187.7 0 150.3 0 112.8 0C75.3 0 37.7 0 18.8 0L0 0Z" fill="#c62368"></path></svg>